<svg xmlns="http://www.w3.org/2000/svg" xmlns:svg="http://www.w3.org/2000/svg" id="svg13790" width="32" height="32" version="1.1"><metadata id="metadata13795"/><g id="layer1"><path style="color:#000;font-style:normal;font-variant:normal;font-weight:400;font-stretch:normal;font-size:medium;line-height:normal;font-family:sans-serif;text-indent:0;text-align:start;text-decoration:none;text-decoration-line:none;text-decoration-style:solid;text-decoration-color:#000;letter-spacing:normal;word-spacing:normal;text-transform:none;direction:ltr;block-progression:tb;writing-mode:lr-tb;baseline-shift:baseline;text-anchor:start;white-space:normal;clip-rule:nonzero;display:inline;overflow:visible;visibility:visible;opacity:1;isolation:auto;mix-blend-mode:normal;color-interpolation:sRGB;color-interpolation-filters:linearRGB;solid-color:#000;solid-opacity:1;fill:#bebebe;fill-opacity:1;fill-rule:nonzero;stroke:none;stroke-width:3.99999881;stroke-linecap:butt;stroke-linejoin:miter;stroke-miterlimit:4;stroke-dasharray:none;stroke-dashoffset:0;stroke-opacity:1;color-rendering:auto;image-rendering:auto;shape-rendering:auto;text-rendering:auto;enable-background:accumulate" id="path4136-5-4-9-7-7-3" d="M 14 4 L 14 8.2578125 C 11.206553 8.9876483 8.995202 11.204465 8.265625 14 L 4 14 L 4 18 L 8.2578125 18 C 8.9876483 20.793448 11.204465 23.004798 14 23.734375 L 14 28 L 18 28 L 18 23.734375 C 20.795535 23.004798 23.012352 20.793448 23.742188 18 L 28 18 L 28 14 L 23.742188 14 C 23.012352 11.206552 20.795535 8.9952018 18 8.265625 L 18 4 L 14 4 z M 16 12 C 18.232829 12 20 13.76717 20 16 C 20 18.23283 18.232829 20 16 20 C 13.767171 20 12 18.23283 12 16 C 12 13.76717 13.767171 12 16 12 z"/></g></svg>