<svg xmlns="http://www.w3.org/2000/svg" xmlns:svg="http://www.w3.org/2000/svg" id="svg13790" width="32" height="32" version="1.1"><metadata id="metadata13795"/><g id="layer1"><path style="color:#000;font-style:normal;font-variant:normal;font-weight:400;font-stretch:normal;font-size:medium;line-height:normal;font-family:sans-serif;text-indent:0;text-align:start;text-decoration:none;text-decoration-line:none;text-decoration-style:solid;text-decoration-color:#000;letter-spacing:normal;word-spacing:normal;text-transform:none;direction:ltr;block-progression:tb;writing-mode:lr-tb;baseline-shift:baseline;text-anchor:start;white-space:normal;clip-rule:nonzero;display:inline;overflow:visible;visibility:visible;opacity:.3;isolation:auto;mix-blend-mode:normal;color-interpolation:sRGB;color-interpolation-filters:linearRGB;solid-color:#000;solid-opacity:1;fill:#bebebe;fill-opacity:1;fill-rule:nonzero;stroke:none;stroke-width:3.99999881;stroke-linecap:butt;stroke-linejoin:miter;stroke-miterlimit:4;stroke-dasharray:none;stroke-dashoffset:0;stroke-opacity:1;color-rendering:auto;image-rendering:auto;shape-rendering:auto;text-rendering:auto;enable-background:accumulate" id="path4136-5-4-9-7-7" d="m 15.939453,9.02539 c -4.394589,0 -8,3.60541 -8,8 0,4.39459 3.605411,8 8,8 4.394589,0 8,-3.60541 8,-8 0,-4.39459 -3.605411,-8 -8,-8 z m 0,4 c 2.232829,0 4,1.76717 4,4 0,2.23283 -1.767171,4 -4,4 -2.232829,0 -4,-1.76717 -4,-4 0,-2.23283 1.767171,-4 4,-4 z"/><path style="color:#000;display:inline;overflow:visible;visibility:visible;fill:#bebebe;fill-opacity:1;fill-rule:nonzero;stroke:none;stroke-width:1;marker:none;enable-background:accumulate" id="rect13805-3-4-8-8-8-7-2-9-98-8-5-9" d="m 16.140625,9.03125 c -2.672801,-0.002 -4.548389,1.05205 -5.876953,2.35547 -2.205805,2.22014 -2.881302,5.50381 -1.839844,8.37305 L 7.541016,20.64648 5.400391,18.50586 4,27 l 8.494141,-1.40039 -2.185547,-2.18555 1.833984,-1.96094 -0.002,-0.002 c 0.651051,-0.63804 0.788389,-1.63555 0.333984,-2.42579 -0.907577,-1.57197 -0.65239,-3.5307 0.626953,-4.81836 1.279348,-1.28765 3.236638,-1.55558 4.814454,-0.6582 1.577815,0.89738 2.349227,2.71682 1.896484,4.47461 -0.452743,1.75779 -2.007262,2.97844 -3.822266,3.00195 -1.375351,0.0111 -2.026131,1.07696 -1.976562,2.10547 l 0,4.9043 4.003906,0 0,-3.28711 C 20.74825,24.00941 22.956499,21.85179 23.6855,19.02143 24.583842,15.53359 23.025221,11.85281 19.894484,10.07221 18.720458,9.40448 17.429288,9.06236 16.140578,9.03119 Z"/></g></svg>