<svg xmlns="http://www.w3.org/2000/svg" xmlns:svg="http://www.w3.org/2000/svg" id="svg13790" width="32" height="32" version="1.1"><metadata id="metadata13795"/><g id="layer1"><path style="color:#000;font-style:normal;font-variant:normal;font-weight:400;font-stretch:normal;font-size:medium;line-height:normal;font-family:sans-serif;text-indent:0;text-align:start;text-decoration:none;text-decoration-line:none;text-decoration-style:solid;text-decoration-color:#000;letter-spacing:normal;word-spacing:normal;text-transform:none;direction:ltr;block-progression:tb;writing-mode:lr-tb;baseline-shift:baseline;text-anchor:start;white-space:normal;clip-rule:nonzero;display:inline;overflow:visible;visibility:visible;opacity:.3;isolation:auto;mix-blend-mode:normal;color-interpolation:sRGB;color-interpolation-filters:linearRGB;solid-color:#000;solid-opacity:1;fill:#bebebe;fill-opacity:1;fill-rule:nonzero;stroke:none;stroke-width:3.99999881;stroke-linecap:butt;stroke-linejoin:miter;stroke-miterlimit:4;stroke-dasharray:none;stroke-dashoffset:0;stroke-opacity:1;color-rendering:auto;image-rendering:auto;shape-rendering:auto;text-rendering:auto;enable-background:accumulate" id="path4136-5-6" d="m 15.93945,9.02539 c -4.39459,0 -8,3.60541 -8,8 0,4.39459 3.60541,8 8,8 4.39459,0 8,-3.60541 8,-8 0,-4.39459 -3.60541,-8 -8,-8 z m 0,4 c 2.23283,0 4,1.76717 4,4 0,2.23283 -1.76717,4 -4,4 -2.23283,0 -4,-1.76717 -4,-4 0,-2.23283 1.76717,-4 4,-4 z"/><path style="color:#000;display:inline;overflow:visible;visibility:visible;fill:#bebebe;fill-opacity:1;fill-rule:nonzero;stroke:none;stroke-width:1;marker:none;enable-background:accumulate" id="rect13805-3-4-8-8-8-7-2-9-9" d="m 24.99609,11.99023 0,3.04493 -2.67382,0 c -1.43712,0 -2.36664,1.01862 -2.38282,1.99023 0,2.21168 -1.73772,3.97135 -3.94922,4 -1.15255,0.0108 -2.05753,0.99087 -1.97656,2.14063 l 0,4.86914 4.00391,0 0,-3.28711 C 20.7862,23.99533 22.96613,21.7804 23.68164,19 l 1.31445,0 0,3.02344 6.99805,-5.01758 z"/></g></svg>