<svg xmlns="http://www.w3.org/2000/svg" xmlns:svg="http://www.w3.org/2000/svg" id="svg13790" width="32" height="32" version="1.1"><metadata id="metadata13795"/><g id="layer1"><path style="color:#000;font-style:normal;font-variant:normal;font-weight:400;font-stretch:normal;font-size:medium;line-height:normal;font-family:sans-serif;text-indent:0;text-align:start;text-decoration:none;text-decoration-line:none;text-decoration-style:solid;text-decoration-color:#000;letter-spacing:normal;word-spacing:normal;text-transform:none;writing-mode:lr-tb;direction:ltr;baseline-shift:baseline;text-anchor:start;white-space:normal;clip-rule:nonzero;display:inline;overflow:visible;visibility:visible;opacity:.3;isolation:auto;mix-blend-mode:normal;color-interpolation:sRGB;color-interpolation-filters:linearRGB;solid-color:#000;solid-opacity:1;fill:#bebebe;fill-opacity:1;fill-rule:nonzero;stroke:none;stroke-width:3.99999881;stroke-linecap:butt;stroke-linejoin:miter;stroke-miterlimit:4;stroke-dasharray:none;stroke-dashoffset:0;stroke-opacity:1;color-rendering:auto;image-rendering:auto;shape-rendering:auto;text-rendering:auto;enable-background:accumulate" id="path4136-5-4-9-7" d="m 15.939453,9.02539 c 4.394589,0 8,3.60541 8,8 0,4.39459 -3.605411,8 -8,8 -4.394589,0 -8,-3.60541 -8,-8 0,-4.39459 3.605411,-8 8,-8 z m 0,4 c -2.232829,0 -4,1.76717 -4,4 0,2.23283 1.767171,4 4,4 2.232829,0 4,-1.76717 4,-4 0,-2.23283 -1.767171,-4 -4,-4 z"/><path style="color:#000;display:inline;overflow:visible;visibility:visible;fill:#bebebe;fill-opacity:1;fill-rule:nonzero;stroke:none;stroke-width:1;marker:none;enable-background:accumulate" id="rect13805-3-4-8-8-8-7-2-9-98-8-5" d="m 4,5 8.494141,1.40039 -2.128907,2.12891 2.550782,2.53711 a 2.0002,2.0002 0 0 1 0.232422,3.09375 c -1.176924,1.14627 -1.5347,2.87854 -0.90625,4.39648 0.628449,1.51794 2.105289,2.48986 3.748046,2.46875 a 2.0002,2.0002 0 0 1 2.027344,2.1875 v 4.82227 H 14.013672 V 24.77148 C 11.590394,24.16667 9.530752,22.46237 8.546875,20.08594 7.564588,17.71334 7.816255,15.05689 9.097656,12.91797 L 7.542969,11.35156 5.400391,13.49414 Z"/></g></svg>