<svg xmlns="http://www.w3.org/2000/svg" xmlns:svg="http://www.w3.org/2000/svg" id="svg13790" width="32" height="32" version="1.1"><metadata id="metadata13795"/><g id="layer1"><path style="color:#000;font-style:normal;font-variant:normal;font-weight:400;font-stretch:normal;font-size:medium;line-height:normal;font-family:sans-serif;text-indent:0;text-align:start;text-decoration:none;text-decoration-line:none;text-decoration-style:solid;text-decoration-color:#000;letter-spacing:normal;word-spacing:normal;text-transform:none;writing-mode:lr-tb;direction:ltr;baseline-shift:baseline;text-anchor:start;white-space:normal;clip-rule:nonzero;display:inline;overflow:visible;visibility:visible;opacity:.3;isolation:auto;mix-blend-mode:normal;color-interpolation:sRGB;color-interpolation-filters:linearRGB;solid-color:#000;solid-opacity:1;fill:#bebebe;fill-opacity:1;fill-rule:nonzero;stroke:none;stroke-width:3.99999881;stroke-linecap:butt;stroke-linejoin:miter;stroke-miterlimit:4;stroke-dasharray:none;stroke-dashoffset:0;stroke-opacity:1;color-rendering:auto;image-rendering:auto;shape-rendering:auto;text-rendering:auto;enable-background:accumulate" id="path4136-5-4" d="m 16.02149,9.02539 c 4.39459,0 8,3.60541 8,8 0,4.39459 -3.60541,8 -8,8 -4.39459,0 -8,-3.60541 -8,-8 0,-4.39459 3.60541,-8 8,-8 z m 0,4 c -2.23283,0 -4,1.76717 -4,4 0,2.23283 1.76717,4 4,4 2.23283,0 4,-1.76717 4,-4 0,-2.23283 -1.76717,-4 -4,-4 z"/><path style="color:#000;display:inline;overflow:visible;visibility:visible;fill:#bebebe;fill-opacity:1;fill-rule:nonzero;stroke:none;stroke-width:1;marker:none;enable-background:accumulate" id="rect13805-3-4-8-8-8-7-2-9-98" d="m 16.05664,9.02539 c 3.69969,0.016 6.82237,2.58831 7.70703,6.02539 h 1.24024 V 12.00586 L 32,17.02148 25.00391,22.03906 v -2.98242 h -3.04297 v -0.006 a 2.0002,2.0002 0 0 1 -1.93945,-2.02539 c 0,-2.22577 -1.75668,-3.99039 -3.98243,-4 -2.22574,-0.01 -3.99835,1.73916 -4.01757,3.96484 -0.0192,2.22569 1.72363,4.00633 3.94922,4.03516 a 2.0002,2.0002 0 0 1 1.97656,2.14063 v 4.86914 H 13.94336 V 24.74009 C 10.51947,23.80983 7.98954,20.6554 8.02149,16.95689 8.05929,12.57563 11.67526,9.00633 16.05664,9.02525 Z"/></g></svg>