<svg xmlns="http://www.w3.org/2000/svg" xmlns:svg="http://www.w3.org/2000/svg" id="svg13790" width="32" height="32" version="1.1"><metadata id="metadata13795"/><g id="layer1"><path style="color:#000;font-style:normal;font-variant:normal;font-weight:400;font-stretch:normal;font-size:medium;line-height:normal;font-family:sans-serif;text-indent:0;text-align:start;text-decoration:none;text-decoration-line:none;text-decoration-style:solid;text-decoration-color:#000;letter-spacing:normal;word-spacing:normal;text-transform:none;direction:ltr;block-progression:tb;writing-mode:lr-tb;baseline-shift:baseline;text-anchor:start;white-space:normal;clip-rule:nonzero;display:inline;overflow:visible;visibility:visible;opacity:.3;isolation:auto;mix-blend-mode:normal;color-interpolation:sRGB;color-interpolation-filters:linearRGB;solid-color:#000;solid-opacity:1;fill:#bebebe;fill-opacity:1;fill-rule:nonzero;stroke:none;stroke-width:3.99999881;stroke-linecap:butt;stroke-linejoin:miter;stroke-miterlimit:4;stroke-dasharray:none;stroke-dashoffset:0;stroke-opacity:1;color-rendering:auto;image-rendering:auto;shape-rendering:auto;text-rendering:auto;enable-background:accumulate" id="path4136-5-4-9-7-7-3" d="m 16.154297,9.02539 c 4.394589,0 8,3.60541 8,8 0,4.39459 -3.605411,8 -8,8 -4.394589,0 -8.0000001,-3.60541 -8.0000001,-8 0,-4.39459 3.6054111,-8 8.0000001,-8 z m 0,4 c -2.232829,0 -4,1.76717 -4,4 0,2.23283 1.767171,4 4,4 2.232829,0 4,-1.76717 4,-4 0,-2.23283 -1.767171,-4 -4,-4 z"/><path style="color:#000;display:inline;overflow:visible;visibility:visible;fill:#bebebe;fill-opacity:1;fill-rule:nonzero;stroke:none;stroke-width:1;marker:none;enable-background:accumulate" id="rect13805-3-4-8-8-8-7-2-9-98-8-5-9-0" d="M 21.212891,18.14453 A 2.0002,2.0002 0 0 0 19.5625,19.11914 c -0.738995,1.20259 -2.047602,1.92463 -3.458984,1.90625 a 2.0002,2.0002 0 0 0 -2.027344,2.17383 l 0,4.83594 4.003906,0 0,-3.2461 c 1.241341,-0.30851 2.389795,-0.91289 3.34961,-1.7539 l 0.355468,0.3789 -2.185547,2.18555 L 28.09375,27 l -1.400391,-8.49414 -2.140625,2.14062 -1.625,-1.63476 a 2.0002,2.0002 0 0 0 -1.714843,-0.86719 z"/></g></svg>