<svg xmlns="http://www.w3.org/2000/svg" xmlns:svg="http://www.w3.org/2000/svg" id="svg13790" width="32" height="32" version="1.1"><metadata id="metadata13795"/><g id="layer1"><path style="color:#000;font-style:normal;font-variant:normal;font-weight:400;font-stretch:normal;font-size:medium;line-height:normal;font-family:sans-serif;text-indent:0;text-align:start;text-decoration:none;text-decoration-line:none;text-decoration-style:solid;text-decoration-color:#000;letter-spacing:normal;word-spacing:normal;text-transform:none;writing-mode:lr-tb;direction:ltr;baseline-shift:baseline;text-anchor:start;white-space:normal;clip-rule:nonzero;display:inline;overflow:visible;visibility:visible;opacity:.3;isolation:auto;mix-blend-mode:normal;color-interpolation:sRGB;color-interpolation-filters:linearRGB;solid-color:#000;solid-opacity:1;fill:#bebebe;fill-opacity:1;fill-rule:nonzero;stroke:none;stroke-width:3.99999881;stroke-linecap:butt;stroke-linejoin:miter;stroke-miterlimit:4;stroke-dasharray:none;stroke-dashoffset:0;stroke-opacity:1;color-rendering:auto;image-rendering:auto;shape-rendering:auto;text-rendering:auto;enable-background:accumulate" id="path4136-5-4-9" d="m 16.767657,9.02539 c 4.39459,0 8,3.60541 8,8 0,4.39459 -3.60541,8 -8,8 -4.394592,0 -8.0000032,-3.60541 -8.0000032,-8 0,-4.39459 3.6054112,-8 8.0000032,-8 z m 0,4 c -2.23283,0 -4,1.76717 -4,4 0,2.23283 1.76717,4 4,4 2.23283,0 4,-1.76717 4,-4 0,-2.23283 -1.76717,-4 -4,-4 z"/><path style="color:#000;display:inline;overflow:visible;visibility:visible;fill:#bebebe;fill-opacity:1;fill-rule:nonzero;stroke:none;stroke-width:1;marker:none;enable-background:accumulate" id="rect13805-3-4-8-8-8-7-2-9-98-8" d="m 28.707107,5 -1.40039,8.49414 -2.14063,-2.14062 -2.5996,2.61523 a 2.000528,2.000528 0 0 1 -2.99024,0.20898 c -1.28895,-1.27051 -3.2436,-1.52092 -4.81055,-0.61523 -1.56694,0.90569 -2.324714,2.72353 -1.86718,4.47461 0.45751,1.75108 2.00865,2.96484 3.81836,2.98828 a 2.0002,2.0002 0 0 1 1.97656,2.14063 v 4.86914 h -4.00391 V 24.75 c -2.72255,-0.73556 -4.9256892,-2.88265 -5.6621082,-5.70117 -0.907891,-3.47481 0.62887,-7.15199 3.7382782,-8.94922 1.55472,-0.89862 3.3192,-1.22257 5.01563,-1.00586 1.04227,0.13314 2.05685,0.47331 2.98242,1.00586 l 1.57813,-1.57031 -2.12891,-2.12891 z"/></g></svg>