<svg xmlns="http://www.w3.org/2000/svg" xmlns:svg="http://www.w3.org/2000/svg" id="svg6640" width="16" height="16" version="1.1" viewBox="0 0 16 16"><metadata id="metadata6645"/><g id="layer1" transform="translate(0,-1036.3622)"><path style="color:#000;font-style:normal;font-variant:normal;font-weight:400;font-stretch:normal;font-size:medium;line-height:normal;font-family:sans-serif;text-indent:0;text-align:start;text-decoration:none;text-decoration-line:none;text-decoration-style:solid;text-decoration-color:#000;letter-spacing:normal;word-spacing:normal;text-transform:none;direction:ltr;block-progression:tb;writing-mode:lr-tb;baseline-shift:baseline;text-anchor:start;white-space:normal;clip-rule:nonzero;display:inline;overflow:visible;visibility:visible;opacity:1;isolation:auto;mix-blend-mode:normal;color-interpolation:sRGB;color-interpolation-filters:linearRGB;solid-color:#000;solid-opacity:1;fill:#000;fill-opacity:1;fill-rule:evenodd;stroke:none;stroke-width:1.99999988;stroke-linecap:butt;stroke-linejoin:miter;stroke-miterlimit:4;stroke-dasharray:none;stroke-dashoffset:0;stroke-opacity:1;color-rendering:auto;image-rendering:auto;shape-rendering:auto;text-rendering:auto;enable-background:accumulate" id="path7198" d="m 8,1038.3438 c -3.4257107,0 -6.60241,3.3985 -7.99804687,5.9335 1.10462427,2.9575 3.86916897,6.0725 7.99804687,6.1036 4.128878,0.031 7.046571,-3.4255 7.998047,-6.0704 -1.366004,-2.5991 -4.572336,-5.9667 -7.998047,-5.9667 z m 0,2 c 2.224834,0 4.171322,1.8465 5.683594,4.1171 -0.314325,0.7024 -1.860658,3.92 -5.683594,3.92 -3.8211776,0 -5.3681919,-3.2448 -5.6816406,-3.9493 C 3.8347887,1042.1929 5.775166,1040.3438 8,1040.3438 Z"/><ellipse style="opacity:1;fill:#000;fill-opacity:1;stroke:none;stroke-width:2;stroke-linecap:round;stroke-linejoin:miter;stroke-miterlimit:4;stroke-dasharray:none;stroke-opacity:1" id="path7200" cx="8" cy="1044.362" rx="3" ry="3"/><ellipse style="opacity:1;fill:#fff;fill-opacity:1;stroke:none;stroke-width:2;stroke-linecap:round;stroke-linejoin:miter;stroke-miterlimit:4;stroke-dasharray:none;stroke-opacity:1" id="path7200-0" cx="7" cy="1043.362" rx="1" ry="1"/></g></svg>