<svg xmlns="http://www.w3.org/2000/svg" xmlns:osb="http://www.openswatchbook.org/uri/2009/osb" xmlns:svg="http://www.w3.org/2000/svg" id="svg7384" width="16.01" height="16" version="1.1" viewBox="0 0 16.01 16"><metadata id="metadata90"/><title id="title9167">Gnome Symbolic Icon Theme</title><defs id="defs7386"><linearGradient id="linearGradient7212" osb:paint="solid"><stop id="stop7214" offset="0" style="stop-color:#000;stop-opacity:1"/></linearGradient></defs><g id="layer13" transform="translate(-680,-100)"><path id="circle5592" d="m 686,102.04474 a 1.9999999,1.9999999 0 0 1 -2,2 1.9999999,1.9999999 0 0 1 -2,-2 1.9999999,1.9999999 0 0 1 2,-2 1.9999999,1.9999999 0 0 1 2,2" style="color:#000;display:inline;overflow:visible;visibility:visible;fill:#2e3436;fill-opacity:1;fill-rule:nonzero;stroke:none;stroke-width:.811746;marker:none;enable-background:accumulate"/><path id="circle5594" d="m 695,102.04474 a 1.9999999,1.9999999 0 0 1 -2,2 1.9999999,1.9999999 0 0 1 -2,-2 1.9999999,1.9999999 0 0 1 2,-2 1.9999999,1.9999999 0 0 1 2,2" style="color:#000;display:inline;overflow:visible;visibility:visible;fill:#2e3436;fill-opacity:1;fill-rule:nonzero;stroke:none;stroke-width:.811746;marker:none;enable-background:accumulate"/><path id="rect5598" d="m 688,101 v 8.08594 l 1,1 V 101 Z m -4.08594,4 3.08594,3.08594 v -2.04688 C 687,105.46293 686.53706,105 685.96094,105 Z m 8.09375,0 c -0.57612,0 -0.94683,0.47036 -1.03906,1.03906 l -0.83984,5.17578 1.83789,1.83789 H 692 v 0.0332 l 1.70703,1.70703 a 1,1 0 0 1 0.084,0.0996 C 693.9152,114.79968 694,114.65755 694,114.49023 v -1.4375 h 0.96094 c 0.57612,0 1.13126,-0.47036 1.03906,-1.03906 l -0.96875,-5.97461 C 694.93902,105.47036 694.56831,105 693.99219,105 Z m -10.65429,0.26758 C 681.13938,105.45757 681,105.7286 681,106.03906 v 4.42188 c 0,0.56222 0.44328,1.00959 1,1.03125 v 2.51562 c 0,0.54955 0.44264,0.99219 0.99219,0.99219 h 2.01562 C 685.55736,115 686,114.55736 686,114.00781 v -2.51562 c 0.42311,-0.0165 0.77851,-0.28057 0.92578,-0.65235 z M 688,111.91406 V 115 h 1 v -2.08594 z" style="fill:#2e3436;fill-opacity:1;stroke:none;stroke-width:.683005;stroke-linecap:square;stop-color:#000"/><path id="path2282" d="M 682.0293 101 A 1 1 0 0 0 681.29297 101.29297 A 1 1 0 0 0 681.29297 102.70703 L 693.29297 114.70703 A 1 1 0 0 0 694.70703 114.70703 A 1 1 0 0 0 694.70703 113.29297 L 682.70703 101.29297 A 1 1 0 0 0 682.0293 101 z" style="color:#000;font-style:normal;font-variant:normal;font-weight:400;font-stretch:normal;font-size:medium;line-height:normal;font-family:sans-serif;font-variant-ligatures:normal;font-variant-position:normal;font-variant-caps:normal;font-variant-numeric:normal;font-variant-alternates:normal;font-variant-east-asian:normal;font-feature-settings:normal;font-variation-settings:normal;text-indent:0;text-align:start;text-decoration:none;text-decoration-line:none;text-decoration-style:solid;text-decoration-color:#000;letter-spacing:normal;word-spacing:normal;text-transform:none;writing-mode:lr-tb;direction:ltr;text-orientation:mixed;dominant-baseline:auto;baseline-shift:baseline;text-anchor:start;white-space:normal;shape-padding:0;shape-margin:0;inline-size:0;clip-rule:nonzero;display:inline;overflow:visible;visibility:visible;isolation:auto;mix-blend-mode:normal;color-interpolation:sRGB;color-interpolation-filters:linearRGB;solid-color:#000;solid-opacity:1;vector-effect:none;fill:#2e3436;fill-opacity:1;fill-rule:evenodd;stroke:none;stroke-width:2;stroke-linecap:round;stroke-linejoin:miter;stroke-miterlimit:4;stroke-dasharray:none;stroke-dashoffset:0;stroke-opacity:1;color-rendering:auto;image-rendering:auto;shape-rendering:auto;text-rendering:auto;enable-background:accumulate;stop-color:#000;stop-opacity:1;opacity:1"/></g></svg>