<svg xmlns="http://www.w3.org/2000/svg" xmlns:osb="http://www.openswatchbook.org/uri/2009/osb" xmlns:svg="http://www.w3.org/2000/svg" id="svg7384" width="16" height="16" version="1.1" viewBox="0 0 16 16"><metadata id="metadata90"/><title id="title9167">Gnome Symbolic Icon Theme</title><defs id="defs7386"><linearGradient id="linearGradient7212" osb:paint="solid"><stop id="stop7214" offset="0" style="stop-color:#000;stop-opacity:1"/></linearGradient></defs><g id="layer20" transform="translate(-320,-60.011276)"><path id="path2259" d="M 322.0293 61 A 1 1 0 0 0 321.29297 61.292969 A 1 1 0 0 0 321.29297 62.707031 L 333.29297 74.707031 A 1 1 0 0 0 334.70703 74.707031 A 1 1 0 0 0 334.70703 73.292969 L 322.70703 61.292969 A 1 1 0 0 0 322.0293 61 z" style="color:#000;font-style:normal;font-variant:normal;font-weight:400;font-stretch:normal;font-size:medium;line-height:normal;font-family:sans-serif;font-variant-ligatures:normal;font-variant-position:normal;font-variant-caps:normal;font-variant-numeric:normal;font-variant-alternates:normal;font-variant-east-asian:normal;font-feature-settings:normal;font-variation-settings:normal;text-indent:0;text-align:start;text-decoration:none;text-decoration-line:none;text-decoration-style:solid;text-decoration-color:#000;letter-spacing:normal;word-spacing:normal;text-transform:none;writing-mode:lr-tb;direction:ltr;text-orientation:mixed;dominant-baseline:auto;baseline-shift:baseline;text-anchor:start;white-space:normal;shape-padding:0;shape-margin:0;inline-size:0;clip-rule:nonzero;display:inline;overflow:visible;visibility:visible;isolation:auto;mix-blend-mode:normal;color-interpolation:sRGB;color-interpolation-filters:linearRGB;solid-color:#000;solid-opacity:1;vector-effect:none;fill:#2e3436;fill-opacity:1;fill-rule:evenodd;stroke:none;stroke-width:2;stroke-linecap:round;stroke-linejoin:miter;stroke-miterlimit:4;stroke-dasharray:none;stroke-dashoffset:0;stroke-opacity:1;color-rendering:auto;image-rendering:auto;shape-rendering:auto;text-rendering:auto;enable-background:accumulate;stop-color:#000;stop-opacity:1;opacity:1"/><path id="path5524" d="m 325.95117,60.125 c -0.7546,0.01863 -1.43443,0.460522 -1.75781,1.142578 C 323.99013,61.45691 323.8748,61.722241 323.875,62 v 0.5 c 2.8e-4,0.127168 0.0248,0.253116 0.0723,0.371094 l 4.06946,6.236495 c 0.1517,0.379505 0.51904,0.628525 0.92773,0.628906 L 331.18164,71 l 2.04407,3.189545 c 0.14643,0.389846 0.40785,0.81017 0.82429,0.810455 h 0.825 c 0.55228,0 1,-0.447715 1,-1 0,-0.552285 -0.44772,-1 -1,-1 h -0.80664 l -1.25781,-3.351562 C 332.66412,69.258592 332.29144,69.000285 331.875,69 h -3.32227 l -0.40039,-1 H 331 c 0.55228,0 1,-0.447715 1,-1 0,-0.552285 -0.44772,-1 -1,-1 h -3.64844 l -0.7832,-1.958984 C 327.41697,63.789489 327.99932,63.010098 328,62.125 c 0,-1.104569 -0.89543,-2 -2,-2 -0.0163,-1.99e-4 -0.0326,-1.99e-4 -0.0488,0 z" style="color:#000;font-style:normal;font-variant:normal;font-weight:400;font-stretch:normal;font-size:medium;line-height:normal;font-family:sans-serif;font-variant-ligatures:normal;font-variant-position:normal;font-variant-caps:normal;font-variant-numeric:normal;font-variant-alternates:normal;font-variant-east-asian:normal;font-feature-settings:normal;font-variation-settings:normal;text-indent:0;text-align:start;text-decoration:none;text-decoration-line:none;text-decoration-style:solid;text-decoration-color:#000;letter-spacing:normal;word-spacing:normal;text-transform:none;writing-mode:lr-tb;direction:ltr;text-orientation:mixed;dominant-baseline:auto;baseline-shift:baseline;text-anchor:start;white-space:normal;shape-padding:0;shape-margin:0;inline-size:0;clip-rule:nonzero;display:inline;overflow:visible;visibility:visible;isolation:auto;mix-blend-mode:normal;color-interpolation:sRGB;color-interpolation-filters:linearRGB;solid-color:#000;solid-opacity:1;vector-effect:none;fill:#2e3436;fill-opacity:1;fill-rule:evenodd;stroke:none;stroke-width:2;stroke-linecap:round;stroke-linejoin:round;stroke-miterlimit:4;stroke-dasharray:none;stroke-dashoffset:0;stroke-opacity:1;color-rendering:auto;image-rendering:auto;shape-rendering:auto;text-rendering:auto;enable-background:accumulate;stop-color:#000"/><path id="path7499-7" d="m 322.85352,66.671875 c -0.26143,0.246837 -0.49717,0.520341 -0.70508,0.814453 l 1.39844,1.398438 c 0.17837,-0.318524 0.3935,-0.613781 0.6621,-0.857422 z m -1.26954,1.839844 c -0.16408,0.394345 -0.27846,0.812639 -0.34179,1.248047 l 2.20508,2.205078 c -0.21018,-0.441258 -0.33789,-0.930413 -0.33789,-1.455078 0,-0.147076 0.0268,-0.286105 0.0449,-0.427735 z m -0.32812,2.851562 c 0.36594,2.236262 2.13874,4.00906 4.375,4.375 z m 7.71094,1.421875 c -0.24323,0.26863 -0.53719,0.483808 -0.85547,0.66211 l 1.37305,1.373046 c 0.28889,-0.212878 0.55529,-0.454242 0.79687,-0.720703 z m -3.9375,0.761719 2.20312,2.203125 c 0.43456,-0.06509 0.84868,-0.183193 1.23828,-0.351562 l -1.55859,-1.558594 c -0.14167,0.01812 -0.28062,0.04492 -0.42773,0.04492 -0.52468,-10e-7 -1.01382,-0.127709 -1.45508,-0.337891 z" style="color:#000;font-style:normal;font-variant:normal;font-weight:400;font-stretch:normal;font-size:medium;line-height:normal;font-family:sans-serif;font-variant-ligatures:normal;font-variant-position:normal;font-variant-caps:normal;font-variant-numeric:normal;font-variant-alternates:normal;font-feature-settings:normal;text-indent:0;text-align:start;text-decoration:none;text-decoration-line:none;text-decoration-style:solid;text-decoration-color:#000;letter-spacing:normal;word-spacing:normal;text-transform:none;writing-mode:lr-tb;direction:ltr;text-orientation:mixed;dominant-baseline:auto;baseline-shift:baseline;text-anchor:start;white-space:normal;shape-padding:0;clip-rule:nonzero;display:inline;overflow:visible;visibility:visible;isolation:auto;mix-blend-mode:normal;color-interpolation:sRGB;color-interpolation-filters:linearRGB;solid-color:#000;solid-opacity:1;vector-effect:none;fill:#2e3436;fill-opacity:1;fill-rule:nonzero;stroke:none;stroke-width:1.92844;stroke-linecap:round;stroke-linejoin:round;stroke-miterlimit:4;stroke-dasharray:none;stroke-dashoffset:0;stroke-opacity:1;color-rendering:auto;image-rendering:auto;shape-rendering:auto;text-rendering:auto;enable-background:accumulate"/></g></svg>