<svg xmlns="http://www.w3.org/2000/svg" xmlns:svg="http://www.w3.org/2000/svg" id="svg5027" width="16" height="16" version="1.1" viewBox="0 0 16 16"><metadata id="metadata5032"/><g id="layer1" transform="translate(0,-1036.3622)"><path style="opacity:1;fill:#2e3436;fill-opacity:1;stroke:none;stroke-width:1;stroke-linecap:butt;stroke-linejoin:miter;stroke-miterlimit:4;stroke-dasharray:none;stroke-dashoffset:0;stroke-opacity:1" id="rect5121-7" d="M 14.478516 0 L 14.478516 0.001953125 A 0.50005 0.50005 0 0 0 14.345703 0.0234375 L 1.359375 4.0195312 A 0.50005 0.50005 0 1 0 1.6542969 4.9746094 L 14.640625 0.97851562 A 0.50005 0.50005 0 0 0 14.478516 0 z M 9.3984375 3.59375 L 7.4511719 4.1933594 L 7 6 L 4.015625 6 C 2.899025 6 2 6.898925 2 8.015625 L 2 12.984375 C 2 14.101075 2.899025 15 4.015625 15 L 12.984375 15 C 14.100975 15 15 14.101075 15 12.984375 L 15 8.015625 C 15 6.898925 14.100975 6 12.984375 6 L 10 6 L 9.3984375 3.59375 z M 3.1328125 8 L 6 8 L 6 11 L 3.1328125 11 L 3.1328125 8 z M 7 8 L 10 8 L 10 11 L 7 11 L 7 8 z M 11 8 L 14 8 L 14 11 L 11 11 L 11 8 z" transform="translate(0,1036.3622)"/></g></svg>