<svg xmlns="http://www.w3.org/2000/svg" xmlns:svg="http://www.w3.org/2000/svg" id="svg6558" width="16" height="16" version="1.1"><metadata id="metadata6563"/><g id="layer1"><path style="color:#000;fill:#2e3436;fill-opacity:1;fill-rule:nonzero;stroke:none;stroke-width:2;marker:none;visibility:visible;display:inline;overflow:visible;enable-background:accumulate" id="rect7046" d="M 5.7191343,5.0308108 3.96875,7.03125 3.0625,9.6875 c -0.2635754,0.511148 0.016909,1.224387 0.5625,1.40625 0.545591,0.181864 1.2166716,-0.214187 1.3125,-0.78125 L 5.71875,8.0625 6,7.75 6,13.25 4.375,15 5.875,16.375 8,14.03125 8,11.90625 10.09375,16 11.875,15.09375 9,9.40625 9,7.65625 11.34375,9.75 c 0.383224,0.3968 1.108768,0.37896 1.472028,-0.03619 C 13.179038,9.298651 13.100409,8.5771604 12.65625,8.25 L 9,5 z"/><path style="color:#000;fill:#2e3436;fill-opacity:1;fill-rule:nonzero;stroke:none;stroke-width:1;marker:none;visibility:visible;display:inline;overflow:visible;enable-background:accumulate" id="path6214" d="m 11.623068,5.4265437 a 2.4638252,2.4638252 0 1 1 -4.9276506,0 2.4638252,2.4638252 0 1 1 4.9276506,0 z" transform="matrix(0.81174588,0,0,0.8117459,0.5650225,-2.4049746)"/></g></svg>