<svg xmlns="http://www.w3.org/2000/svg" xmlns:svg="http://www.w3.org/2000/svg" id="svg5027" width="16" height="16" version="1.1" viewBox="0 0 16 16"><metadata id="metadata5032"/><g id="layer1" transform="translate(0,-1036.3622)"><path style="opacity:1;fill:#2e3436;fill-opacity:1;stroke:none;stroke-width:1;stroke-linecap:round;stroke-linejoin:round;stroke-miterlimit:4;stroke-dasharray:none;stroke-dashoffset:0;stroke-opacity:1" id="rect5154-8-2-7-9-8-5-2-6-8-1-6" d="M 6.4316406 0.04296875 C 3.9763407 0.04296875 2 1.8548687 2 4.1054688 L 2 10.941406 C 2 12.080906 2.9171406 13 4.0566406 13 L 11.943359 13 C 13.082859 13 14 12.080906 14 10.941406 L 14 4.1054688 C 14 1.8548687 12.023659 0.04296875 9.5683594 0.04296875 L 6.4316406 0.04296875 z M 6.953125 2 L 7 2 L 7 5.9941406 L 4 7.0253906 L 4 5.1523438 C 4 3.4053437 5.3162251 2 6.953125 2 z M 9 2 L 9.0449219 2 C 10.681822 2 12 3.4053438 12 5.1523438 L 12 7.0253906 L 9 5.9941406 L 9 2 z M 5 9 A 1.0000052 1.0000052 0 0 1 6 10 A 1.0000052 1.0000052 0 0 1 5 11 A 1.0000052 1.0000052 0 0 1 4 10 A 1.0000052 1.0000052 0 0 1 5 9 z M 11 9 A 1.0000052 1.0000052 0 0 1 12 10 A 1.0000052 1.0000052 0 0 1 11 11 A 1.0000052 1.0000052 0 0 1 10 10 A 1.0000052 1.0000052 0 0 1 11 9 z M 2.3105469 14 L 1.1582031 15.138672 C 0.68300312 15.607372 1.3860281 16.320262 1.8613281 15.851562 L 3.7324219 14 L 2.3105469 14 z M 12.283203 14 L 14.154297 15.851562 C 14.629597 16.320262 15.332622 15.607372 14.857422 15.138672 L 13.705078 14 L 12.283203 14 z" transform="translate(0,1036.3622)"/></g></svg>