<svg xmlns="http://www.w3.org/2000/svg" xmlns:svg="http://www.w3.org/2000/svg" id="svg5027" width="16" height="16" version="1.1" viewBox="0 0 16 16"><metadata id="metadata5032"/><g id="layer1" transform="translate(0,-1036.3622)"><path style="opacity:1;fill:#2e3436;fill-opacity:1;stroke:none;stroke-width:1;stroke-linecap:round;stroke-linejoin:miter;stroke-miterlimit:4;stroke-dasharray:none;stroke-dashoffset:0;stroke-opacity:1" id="rect5202-3" d="m 2,1051.4247 14,-4.0625 0,5 -14,0 z"/><path style="opacity:1;fill:#2e3436;fill-opacity:1;stroke:none;stroke-width:1;stroke-linecap:round;stroke-linejoin:miter;stroke-miterlimit:4;stroke-dasharray:none;stroke-dashoffset:0;stroke-opacity:1" id="rect5346-7-6" d="m 11.5789,1039.1376 c -0.1328,0.01 -0.2685,0.031 -0.4023,0.066 l -8.6934,2.3281 c -1.0701999,0.2868 -1.7007999,1.379 -1.4139999,2.4493 l 1.0350999,3.8652 c 0.2868,1.0702 1.3809,1.7008 2.4512,1.4141 l 8.6933,-2.3301 c 1.0703,-0.2868 1.7009,-1.379 1.4141,-2.4492 l -1.0351,-3.8633 c -0.251,-0.9365 -1.1189,-1.5372 -2.0489,-1.4805 z m 0.1172,1.9981 0.7754,2.8965 -1.9316,0.5175 -0.7774,-2.8964 1.9336,-0.5176 z m -2.8984,0.7754 0.7754,2.8984 -2.8965,0.7754 -0.7774,-2.8965 2.8985,-0.7773 z m -3.8633,1.0351 0.7754,2.8985 -1.9317,0.5175 -0.7753,-2.8984 1.9316,-0.5176 z"/></g></svg>