<svg xmlns="http://www.w3.org/2000/svg" xmlns:svg="http://www.w3.org/2000/svg" id="svg5027" width="16" height="16" version="1.1" viewBox="0 0 16 16"><metadata id="metadata5032"/><g id="layer1" transform="translate(0,-1036.3622)"><path style="color:#000;display:inline;overflow:visible;visibility:visible;fill:#2e3436;fill-opacity:1;fill-rule:nonzero;stroke:none;stroke-width:1;marker:none;enable-background:accumulate" id="rect6086-1-3-2-7-0-9-0-5-7" d="m 1.9773,1037.406 c -0.5194,0 -0.9375,0.418 -0.9375,0.9375 l 0,12.925 c 0,0.606 0.4878,1.0937 1.0937,1.0937 l 0.8125,0 c 0.606,0 1.0938,-0.4877 1.0938,-1.0937 l 0,-0.9063 7.9602,0 0,0.9063 c 0,0.606 0.4878,1.0937 1.0938,1.0937 l 0.8125,0 c 0.6059,0 1.0937,-0.4877 1.0937,-1.0937 l 0,-12.925 c 0,-0.5195 -0.4181,-0.9375 -0.9375,-0.9375 z m 1.1783,0.9975 9.7728,0 c 0.6059,0 1.0937,0.488 1.0937,1.0939 l 0,4.7711 c 0,0.6059 -0.4878,1.0937 -1.0937,1.0937 l -9.7728,0 c -0.6059,0 -1.0937,-0.4878 -1.0937,-1.0937 l 0,-4.7711 c 0,-0.6059 0.4878,-1.0939 1.0937,-1.0939 z m 0.386,7.9587 c 0.8284,0 1.5,0.6716 1.5,1.5 0,0.8285 -0.6716,1.5 -1.5,1.5 -0.8284,0 -1.5,-0.6715 -1.5,-1.5 0,-0.8284 0.6716,-1.5 1.5,-1.5 z m 9.0061,0 c 0.8285,0 1.5,0.6716 1.5,1.5 0,0.8285 -0.6715,1.5 -1.5,1.5 -0.8284,0 -1.4219,-0.6715 -1.4219,-1.5 0,-0.8284 0.5935,-1.5 1.4219,-1.5 z"/></g></svg>