<svg xmlns="http://www.w3.org/2000/svg" xmlns:svg="http://www.w3.org/2000/svg" id="svg5027" width="16" height="16" version="1.1" viewBox="0 0 16 16"><metadata id="metadata5032"/><g id="layer1" transform="translate(0,-1036.3622)"><path style="opacity:1;fill:#2e3436;fill-opacity:1;stroke:none;stroke-width:1;stroke-linecap:round;stroke-linejoin:miter;stroke-miterlimit:4;stroke-dasharray:none;stroke-dashoffset:0;stroke-opacity:1" id="rect5293-5" d="m 7.009775,1037.3701 0,1 -1.9688,0 c -0.5713,0 -1.0312,0.46 -1.0312,1.0313 l 0,3.4609 -2,0.7617 c 0,1.9608 1.6558,4.3516 2.7227,5.6954 0.331,-0.084 0.6905,-0.2216 1.0839,-0.3868 0.6453,-0.2707 1.3722,-0.5859 2.2129,-0.5839 0.837,0 1.5439,0.3139 2.1621,0.58 0.3888,0.1674 0.7394,0.3057 1.0664,0.3867 1.0746,-1.3684 2.752,-3.8081 2.752,-5.6914 l -2,-0.7636 0,-3.459 c 0,-0.5713 -0.46,-1.0313 -1.0312,-1.0313 l -1.9688,0 0,-1 -2,0 z m -1.0156,2 1.0156,0 2,0 1.0156,0 c 0.5454,0 0.9844,0.4391 0.9844,0.9844 l 0,2.0313 c 0,0.03 -0.015,0.056 -0.018,0.086 l -2.9707,-1.1348 -2.9941,1.1387 c 0,-0.031 -0.018,-0.058 -0.018,-0.09 l 0,-2.0313 c 0,-0.5453 0.439,-0.9844 0.9844,-0.9844 z m 2.0351,9.9727 c -0.8407,0 -1.5676,0.3152 -2.2129,0.5859 -0.6452,0.2708 -1.2076,0.4882 -1.6836,0.4668 -1.0146,-0.046 -2.4609,-0.9668 -2.4609,-0.9668 l -0.5625,0.8282 c 0,0 1.4734,1.0689 2.9785,1.1367 0.7839,0.035 1.4714,-0.2728 2.1153,-0.543 0.6438,-0.2702 1.245,-0.509 1.8242,-0.5078 0.5829,0 1.1535,0.2329 1.7695,0.498 0.616,0.2652 1.2788,0.572 2.0547,0.543 0.7505,-0.028 1.4912,-0.3173 2.0664,-0.5859 0.5752,-0.2687 0.9902,-0.5332 0.9902,-0.5332 l -0.539,-0.8438 c 0,0 -0.3611,0.2307 -0.875,0.4707 -0.5139,0.24 -1.1777,0.4735 -1.6797,0.4922 -0.4766,0.018 -1.0048,-0.1948 -1.6231,-0.4609 -0.6182,-0.2662 -1.3251,-0.5783 -2.1621,-0.5801 z"/></g></svg>