<svg xmlns="http://www.w3.org/2000/svg" xmlns:svg="http://www.w3.org/2000/svg" id="svg6558" width="16" height="16" version="1.1"><metadata id="metadata6563"/><g id="layer1"><path style="color:#000;fill:#2e3436;fill-opacity:1;fill-rule:nonzero;stroke:none;stroke-width:1;marker:none;visibility:visible;display:inline;overflow:visible;enable-background:accumulate" id="rect6086" d="M 4,4 C 3.480625,4 3.19205,4.4345415 3.0625,4.9375 L 2.28125,8 1.9375,8 C 1.418125,8 1,8.418125 1,8.9375 l 0,4.125 C 1,13.581875 1.480625,14 2,14 l 0,0.90625 C 2,15.512187 2.446,16 3,16 3.554,16 4,15.512187 4,14.90625 L 4,14 l 8,0 0,0.90625 C 12,15.512187 12.446,16 13,16 c 0.554,0 1,-0.487813 1,-1.09375 L 14,14 c 0.546725,0 1,-0.418125 1,-0.9375 l 0,-4.125 C 15,8.418125 14.581875,8 14.0625,8 L 13.71875,8 12.9375,4.9375 C 12.80795,4.4345415 12.519375,4 12,4 L 4,4 z m 1.0625,1 5.875,0 C 11.543438,5 11.816859,5.5161519 12,6.09375 L 12.625,8 c 0.183141,0.577598 -0.112812,1 -0.71875,1 L 4.09375,9 C 3.487812,9 3.153528,8.606555 3.34375,8.03125 L 4,6.09375 C 4.190222,5.5184449 4.456562,5 5.0625,5 z M 4,10 c 0.552285,0 1,0.447715 1,1 0,0.552285 -0.447715,1 -1,1 -0.552285,0 -1,-0.447715 -1,-1 0,-0.552285 0.447715,-1 1,-1 z m 8,0 c 0.552285,0 1,0.447715 1,1 0,0.552285 -0.447715,1 -1,1 -0.552285,0 -1,-0.447715 -1,-1 0,-0.552285 0.447715,-1 1,-1 z"/></g></svg>