<svg xmlns="http://www.w3.org/2000/svg" xmlns:svg="http://www.w3.org/2000/svg" id="svg5027" width="16" height="16" version="1.1" viewBox="0 0 16 16"><metadata id="metadata5032"/><g id="layer1" transform="translate(0,-1036.3622)"><path style="opacity:1;fill:#2e3436;fill-opacity:1;stroke:none;stroke-width:1;stroke-linecap:round;stroke-linejoin:round;stroke-miterlimit:4;stroke-dasharray:none;stroke-dashoffset:0;stroke-opacity:1" id="rect5154-8-2-7-9-8-5-2-33-4-4-4" d="m 4.0625,1037.3613 c -1.1426,0 -2.0625,0.9199 -2.0625,2.0625 l 0,7.875 c 0,1.1427 0.9199,2.0625 2.0625,2.0625 l 7.875,0 c 1.1426,0 2.0625,-0.9198 2.0625,-2.0625 l 0,-7.875 c 0,-1.1426 -0.9199,-2.0625 -2.0625,-2.0625 l -7.875,0 z m 2.005859,1.9942 3.853516,0 c 1.1426,0 2.0625,0.9198 2.0625,2.0625 l 0,1.875 c 0,1.1426 -0.9199,2.0625 -2.0625,2.0625 l -3.853516,0 c -1.1426,0 -2.0625,-0.9199 -2.0625,-2.0625 l 0,-1.875 c 0,-1.1427 0.9199,-2.0625 2.0625,-2.0625 z M 5,1046.3613 c 0.5523,0 1,0.4478 1,1 0,0.5523 -0.4477,1 -1,1 -0.5523,0 -1,-0.4477 -1,-1 0,-0.5522 0.4477,-1 1,-1 z m 6,0 c 0.5523,0 1,0.4478 1,1 0,0.5523 -0.4477,1 -1,1 -0.5523,0 -1,-0.4477 -1,-1 0,-0.5522 0.4477,-1 1,-1 z m -6.634766,3.9961 -1.152343,1.1387 c -0.4753,0.4687 0.227825,1.1816 0.703125,0.7129 l 1.871093,-1.8516 -1.421875,0 z m 5.902344,0 1.871094,1.8516 c 0.4752,0.4687 1.178325,-0.2442 0.703125,-0.7129 l -1.152344,-1.1387 -1.421875,0 z"/></g></svg>