<svg xmlns="http://www.w3.org/2000/svg" xmlns:svg="http://www.w3.org/2000/svg" id="svg6558" width="16" height="16" version="1.1"><metadata id="metadata6563"/><g id="layer1"><path style="color:#000;fill:#2e3436;fill-opacity:1;fill-rule:nonzero;stroke:none;stroke-width:1;marker:none;visibility:visible;display:inline;overflow:visible;enable-background:accumulate" id="rect6086-1" d="M 1.9375,1 C 1.418125,1 1,1.418125 1,1.9375 L 1,14.90625 C 1,15.512187 1.487812,16 2.09375,16 l 0.8125,0 C 3.512188,16 4,15.512187 4,14.90625 L 4,14 l 8,0 0,0.90625 C 12,15.512187 12.487812,16 13.09375,16 l 0.8125,0 C 14.512188,16 15,15.512187 15,14.90625 L 15,1.9375 C 15,1.418125 14.581875,1 14.0625,1 z m 1.15625,1 9.8125,0 C 13.512188,2 14,2.4878125 14,3.09375 l 0,4.8125 C 14,8.5121875 13.512188,9 12.90625,9 L 3.09375,9 C 2.487812,9 2,8.5121875 2,7.90625 L 2,3.09375 C 2,2.4878125 2.487812,2 3.09375,2 z M 3.5,10 C 4.328427,10 5,10.671573 5,11.5 5,12.328427 4.328427,13 3.5,13 2.671573,13 2,12.328427 2,11.5 2,10.671573 2.671573,10 3.5,10 z m 9,0 C 13.328427,10 14,10.671573 14,11.5 14,12.328427 13.328427,13 12.5,13 11.671573,13 11,12.328427 11,11.5 11,10.671573 11.671573,10 12.5,10 z"/></g></svg>