<svg xmlns="http://www.w3.org/2000/svg" xmlns:svg="http://www.w3.org/2000/svg" id="svg7384" width="16" height="16" version="1.1"><metadata id="metadata90"/><title id="title9167">Gnome Symbolic Icon Theme</title><g id="layer12" transform="translate(-81.00015,-687)" style="display:inline"><path style="font-size:medium;font-style:normal;font-variant:normal;font-weight:400;font-stretch:normal;text-indent:0;text-align:start;text-decoration:none;line-height:normal;letter-spacing:normal;word-spacing:normal;text-transform:none;direction:ltr;block-progression:tb;writing-mode:lr-tb;text-anchor:start;color:#000;fill:#2e3436;fill-opacity:1;stroke:none;stroke-width:2;marker:none;visibility:visible;display:inline;overflow:visible;enable-background:accumulate;font-family:Bitstream Vera Sans;-inkscape-font-specification:Bitstream Vera Sans" id="path3613-6-6-9" d="M 4.5625 2 L 4.28125 2.28125 L 1.28125 5.28125 C 1.09304 5.46943 1 5.73471 1 6 L 1 7 L 2 7 C 2.26531 7.00004 2.53057 6.90686 2.71875 6.71875 L 4 5.4375 L 4 11 L 6 11 L 6 5.4375 L 7.28125 6.71875 C 7.46942 6.9069 7.7347 7 8 7 L 9 7 L 9 6 C 8.99997 5.73469 8.90689 5.46943 8.71875 5.28125 L 5.71875 2.28125 L 5.4375 2 L 4.5625 2 z" transform="translate(81.00015,687)"/><path style="font-size:medium;font-style:normal;font-variant:normal;font-weight:400;font-stretch:normal;text-indent:0;text-align:start;text-decoration:none;line-height:normal;letter-spacing:normal;word-spacing:normal;text-transform:none;direction:ltr;block-progression:tb;writing-mode:lr-tb;text-anchor:start;color:#000;fill:#2e3436;fill-opacity:1;stroke:none;stroke-width:2;marker:none;visibility:visible;display:inline;overflow:visible;enable-background:accumulate;font-family:Bitstream Vera Sans;-inkscape-font-specification:Bitstream Vera Sans" id="path3613-6-6-9-5" d="M 10 4 L 10 9.5625 L 8.71875 8.28125 C 8.53057 8.09314 8.26531 7.99996 8 8 L 7 8 L 7 9 C 7 9.26529 7.09304 9.53057 7.28125 9.71875 L 10.28125 12.71875 L 10.5625 13 L 11.4375 13 L 11.71875 12.71875 L 14.71875 9.71875 C 14.90689 9.53057 14.99997 9.26531 15 9 L 15 8 L 14 8 C 13.7347 8 13.46942 8.0931 13.28125 8.28125 L 12 9.5625 L 12 4 L 10 4 z" transform="translate(81.00015,687)"/></g></svg>