<svg xmlns="http://www.w3.org/2000/svg" xmlns:svg="http://www.w3.org/2000/svg" id="svg5027" width="16" height="16" version="1.1" viewBox="0 0 16 16"><metadata id="metadata5032"/><g id="layer1" transform="translate(0,-1036.3622)"><path style="opacity:1;fill:#2e3436;fill-opacity:1;stroke:none;stroke-width:1;stroke-linecap:butt;stroke-linejoin:miter;stroke-miterlimit:4;stroke-dasharray:none;stroke-dashoffset:0;stroke-opacity:1" id="rect4196-0" d="m 5,1037.3622 0,1 -3,0 0,2.0313 1,0 0,6.9843 c 0,0.5631 0.452525,1.0157 1.015625,1.0157 l 0.988281,0 0,1 6,0 0,-1 0.984375,0 c 0.5592,0 1.011719,-0.4526 1.011719,-1.0157 l 0,-6.9843 1,0 0,-2.0313 -3,0 0,-1 -6,0 z m -1,3.0313 2,0 0,3 -2,0 0,-3 z m 3,0 2,0 0,3 -2,0 0,-3 z m 3,0 2,0 0,3 -2,0 0,-3 z m -2,5 a 1,1 0 0 1 1,1 1,1 0 0 1 -1,1 1,1 0 0 1 -1,-1 1,1 0 0 1 1,-1 z m -3.634766,4.996 -1.152343,1.1387 c -0.4753,0.4687 0.227825,1.1816 0.703125,0.7129 l 1.871093,-1.8516 -1.421875,0 z m 5.902344,0 1.871094,1.8516 c 0.4752,0.4687 1.178325,-0.2442 0.703125,-0.7129 l -1.152344,-1.1387 -1.421875,0 z"/></g></svg>