<svg xmlns="http://www.w3.org/2000/svg" xmlns:osb="http://www.openswatchbook.org/uri/2009/osb" xmlns:svg="http://www.w3.org/2000/svg" id="svg7384" width="16.01" height="16" version="1.1" viewBox="0 0 16.01 16"><metadata id="metadata90"/><title id="title9167">Gnome Symbolic Icon Theme</title><defs id="defs7386"><linearGradient id="linearGradient7212" osb:paint="solid"><stop id="stop7214" offset="0" style="stop-color:#000;stop-opacity:1"/></linearGradient></defs><g id="layer13" transform="translate(-660,-100)"><path id="circle5567" d="m 666,102.04474 a 1.9999999,1.9999999 0 0 1 -2,2 1.9999999,1.9999999 0 0 1 -2,-2 1.9999999,1.9999999 0 0 1 2,-2 1.9999999,1.9999999 0 0 1 2,2" style="color:#000;display:inline;overflow:visible;visibility:visible;fill:#2e3436;fill-opacity:1;fill-rule:nonzero;stroke:none;stroke-width:.811746;marker:none;enable-background:accumulate"/><path id="circle5575" d="m 675,102.04474 a 1.9999999,1.9999999 0 0 1 -2,2 1.9999999,1.9999999 0 0 1 -2,-2 1.9999999,1.9999999 0 0 1 2,-2 1.9999999,1.9999999 0 0 1 2,2" style="color:#000;display:inline;overflow:visible;visibility:visible;fill:#2e3436;fill-opacity:1;fill-rule:nonzero;stroke:none;stroke-width:.811746;marker:none;enable-background:accumulate"/><path id="rect5577" d="m 662.03994,105 h 3.92012 c 0.57612,0 1.03994,0.46382 1.03994,1.03994 v 4.42012 c 0,0.57612 -0.46382,1.03994 -1.03994,1.03994 h -3.92012 C 661.46382,111.5 661,111.03618 661,110.46006 v -4.42012 C 661,105.46382 661.46382,105 662.03994,105 Z" style="fill:#2e3436;fill-opacity:1;stroke:none;stroke-width:.683005;stroke-linecap:square;stop-color:#000"/><path id="rect5579" d="m 662.99197,108.5 h 2.01606 c 0.54955,0 0.99197,0.44242 0.99197,0.99197 v 4.51606 C 666,114.55758 665.55758,115 665.00803,115 h -2.01606 C 662.44242,115 662,114.55758 662,114.00803 v -4.51606 c 0,-0.54955 0.44242,-0.99197 0.99197,-0.99197 z" style="fill:#2e3436;fill-opacity:1;stroke:none;stroke-width:.557671;stroke-linecap:square;stop-color:#000"/><path id="rect5581" d="m 672.50887,108.5 h 0.98226 c 0.28191,0 0.50887,0.22696 0.50887,0.50887 v 5.48226 C 674,114.77304 673.77304,115 673.49113,115 h -0.98226 C 672.22696,115 672,114.77304 672,114.49113 v -5.48226 c 0,-0.28191 0.22696,-0.50887 0.50887,-0.50887 z" style="fill:#2e3436;fill-opacity:1;stroke:none;stroke-width:.557671;stroke-linecap:square;stop-color:#000"/><path id="rect5583" d="m 672.00869,105 h 1.98262 c 0.57612,0 0.94771,0.47125 1.03994,1.03994 L 676,112.01323 c 0.0922,0.5687 -0.46382,1.03994 -1.03994,1.03994 h -3.92012 c -0.57612,0 -1.13217,-0.47124 -1.03994,-1.03994 l 0.96875,-5.97329 C 671.06098,105.47125 671.43257,105 672.00869,105 Z" style="fill:#2e3436;fill-opacity:1;stroke:none;stroke-width:.683005;stroke-linecap:square;stop-color:#000"/><path id="rect5588" d="m 668,101 h 1 v 14 h -1 z" style="fill:#2e3436;fill-opacity:1;stroke:none;stroke-width:.683005;stroke-linecap:square;stop-color:#000"/></g></svg>